<svg xmlns="http://www.w3.org/2000/svg" viewBox="0 0 161 36" width="161" height="36">
	<defs>
		<clipPath clipPathUnits="userSpaceOnUse" id="cp1">
			<path d="M0.1,10l9.9,9.9l9.9,-9.9l-9.9,-9.9z" />
		</clipPath>
	</defs>
	<style>
		tspan { white-space:pre }
		.shp0 { fill: #ffffff } 
		.shp1 { fill: #000000 } 
		.shp2 { fill: #1f8efa } 
	</style>
	<path id="Combined Shape" class="shp0" d="M9.55,31.73c0.64,0 1.16,-0.05 1.57,-0.16c0.41,-0.11 0.75,-0.25 1,-0.43c0.25,-0.18 0.42,-0.4 0.52,-0.65c0.1,-0.25 0.14,-0.53 0.14,-0.84c0,-0.65 -0.31,-1.2 -0.92,-1.63c-0.62,-0.43 -1.67,-0.9 -3.18,-1.4c-0.65,-0.23 -1.31,-0.5 -1.96,-0.79c-0.65,-0.3 -1.24,-0.67 -1.76,-1.13c-0.52,-0.45 -0.94,-1 -1.27,-1.65c-0.33,-0.64 -0.49,-1.43 -0.49,-2.35c0,-0.92 0.17,-1.76 0.52,-2.5c0.35,-0.74 0.84,-1.37 1.47,-1.89c0.27,-0.22 0.56,-0.42 0.87,-0.59c0.27,1.48 1.35,2.68 2.76,3.11c-0.11,0.05 -0.21,0.1 -0.3,0.15c-0.47,0.3 -0.71,0.76 -0.71,1.37c0,0.37 0.09,0.67 0.26,0.92c0.17,0.25 0.42,0.48 0.74,0.68c0.32,0.2 0.68,0.38 1.1,0.55c0.41,0.16 0.87,0.33 1.37,0.51c1.04,0.38 1.94,0.77 2.71,1.14c0.77,0.38 1.41,0.81 1.92,1.31c0.51,0.5 0.89,1.09 1.14,1.76c0.25,0.67 0.38,1.49 0.38,2.45c0,1.87 -0.65,3.32 -1.96,4.34c-1.31,1.03 -3.28,1.54 -5.92,1.54c-0.89,0 -1.68,-0.05 -2.4,-0.16c-0.71,-0.11 -1.34,-0.24 -1.89,-0.39c-0.55,-0.15 -1.02,-0.32 -1.41,-0.49c-0.39,-0.17 -0.73,-0.34 -1,-0.49l1.27,-3.58c0.6,0.33 1.33,0.62 2.21,0.88c0.88,0.26 1.95,0.39 3.22,0.39zM14.05,15.13c0.98,0.29 1.79,0.61 2.42,0.95l-1.3,3.55c-0.56,-0.29 -1.18,-0.54 -1.86,-0.77c-0.45,-0.14 -0.95,-0.24 -1.52,-0.29c1.27,-0.64 2.16,-1.95 2.2,-3.46c0.02,0.01 0.04,0.01 0.05,0.02zM28.95,27.11c0,-1.39 -0.18,-2.37 -0.53,-2.94c-0.36,-0.58 -0.97,-0.87 -1.83,-0.87c-0.27,0 -0.55,0.01 -0.84,0.04c-0.29,0.03 -0.57,0.06 -0.84,0.1v11.72h-4.3v-14.67c0.37,-0.1 0.79,-0.2 1.28,-0.3c0.49,-0.11 1.01,-0.2 1.56,-0.29c0.55,-0.09 1.11,-0.15 1.69,-0.2c0.58,-0.05 1.15,-0.07 1.7,-0.07c1.1,0 1.99,0.14 2.67,0.42c0.68,0.28 1.25,0.61 1.69,1c0.62,-0.44 1.32,-0.79 2.12,-1.04c0.8,-0.25 1.53,-0.38 2.21,-0.38c1.21,0 2.21,0.17 2.99,0.51c0.78,0.34 1.4,0.81 1.86,1.43c0.46,0.62 0.78,1.35 0.95,2.19c0.17,0.85 0.26,1.79 0.26,2.83v8.57h-4.3v-8.05c0,-1.39 -0.18,-2.37 -0.53,-2.94c-0.36,-0.58 -0.97,-0.87 -1.83,-0.87c-0.23,0 -0.55,0.06 -0.97,0.17c-0.41,0.12 -0.76,0.26 -1.02,0.43c0.13,0.44 0.22,0.91 0.26,1.4c0.04,0.49 0.06,1.02 0.06,1.57v8.29h-4.3zM51.29,32.16c0.42,0 0.83,-0.01 1.21,-0.03c0.38,-0.02 0.69,-0.05 0.92,-0.09v-3.26c-0.17,-0.04 -0.43,-0.08 -0.78,-0.12c-0.35,-0.04 -0.66,-0.06 -0.95,-0.06c-0.4,0 -0.78,0.02 -1.14,0.07c-0.36,0.05 -0.67,0.14 -0.94,0.27c-0.27,0.13 -0.48,0.32 -0.64,0.55c-0.15,0.23 -0.23,0.52 -0.23,0.87c0,0.67 0.23,1.14 0.68,1.4c0.45,0.26 1.07,0.39 1.86,0.39zM50.95,19.57c1.27,0 2.33,0.14 3.18,0.43c0.85,0.29 1.53,0.7 2.04,1.24c0.51,0.54 0.87,1.19 1.08,1.96c0.21,0.77 0.32,1.63 0.32,2.57v8.95c-0.62,0.13 -1.47,0.29 -2.57,0.48c-1.1,0.18 -2.42,0.27 -3.98,0.27c-0.98,0 -1.87,-0.09 -2.67,-0.26c-0.8,-0.17 -1.49,-0.46 -2.06,-0.85c-0.58,-0.39 -1.02,-0.91 -1.33,-1.54c-0.31,-0.64 -0.46,-1.41 -0.46,-2.34c0,-0.89 0.18,-1.64 0.53,-2.25c0.36,-0.62 0.83,-1.11 1.43,-1.47c0.6,-0.37 1.28,-0.63 2.05,-0.79c0.77,-0.16 1.57,-0.25 2.4,-0.25c0.56,0 1.05,0.02 1.49,0.07c0.43,0.05 0.78,0.11 1.05,0.19v-0.4c0,-0.73 -0.22,-1.32 -0.66,-1.76c-0.44,-0.44 -1.21,-0.66 -2.31,-0.66c-0.73,0 -1.45,0.05 -2.17,0.16c-0.71,0.11 -1.33,0.25 -1.85,0.45l-0.55,-3.46c0.25,-0.08 0.56,-0.16 0.94,-0.25c0.38,-0.09 0.78,-0.16 1.23,-0.23c0.44,-0.07 0.91,-0.13 1.4,-0.17c0.49,-0.05 0.99,-0.07 1.49,-0.07zM70.61,23.79c-0.38,-0.1 -0.84,-0.2 -1.36,-0.3c-0.52,-0.11 -1.08,-0.16 -1.67,-0.16c-0.27,0 -0.59,0.02 -0.97,0.07c-0.38,0.05 -0.66,0.1 -0.85,0.16v11.61h-4.3v-14.38c0.77,-0.27 1.68,-0.52 2.73,-0.77c1.05,-0.24 2.22,-0.36 3.51,-0.36c0.23,0 0.51,0.01 0.84,0.04c0.33,0.03 0.65,0.07 0.98,0.12c0.33,0.05 0.65,0.11 0.98,0.17c0.33,0.07 0.61,0.15 0.84,0.25zM73.49,16.19l4.3,-0.69v4.47h5.17v3.58h-5.17v5.34c0,0.9 0.16,1.63 0.48,2.17c0.32,0.54 0.96,0.81 1.92,0.81c0.46,0 0.94,-0.04 1.43,-0.13c0.49,-0.09 0.94,-0.21 1.34,-0.36l0.61,3.35c-0.52,0.21 -1.1,0.39 -1.73,0.55c-0.64,0.15 -1.41,0.23 -2.34,0.23c-1.17,0 -2.15,-0.16 -2.92,-0.48c-0.77,-0.32 -1.39,-0.76 -1.85,-1.33c-0.46,-0.57 -0.78,-1.26 -0.97,-2.06c-0.18,-0.81 -0.27,-1.7 -0.27,-2.68zM99.85,15.15h1.96v20.01h-1.96v-9.61h-10.85v9.61h-1.96v-20.01h1.96v8.69h10.85zM119.63,27.71c0,1.17 -0.17,2.24 -0.51,3.2c-0.34,0.96 -0.81,1.78 -1.41,2.45c-0.61,0.67 -1.32,1.2 -2.15,1.57c-0.83,0.38 -1.74,0.56 -2.74,0.56c-1,0 -1.91,-0.19 -2.74,-0.56c-0.83,-0.38 -1.54,-0.9 -2.15,-1.57c-0.61,-0.67 -1.08,-1.49 -1.41,-2.45c-0.34,-0.96 -0.51,-2.03 -0.51,-3.2c0,-1.17 0.17,-2.24 0.51,-3.2c0.34,-0.96 0.81,-1.79 1.41,-2.47c0.61,-0.68 1.32,-1.21 2.15,-1.59c0.83,-0.38 1.74,-0.56 2.74,-0.56c1,0 1.91,0.19 2.74,0.56c0.83,0.38 1.54,0.9 2.15,1.59c0.61,0.68 1.08,1.51 1.41,2.47c0.34,0.96 0.51,2.03 0.51,3.2zM117.64,27.71c0,-1.87 -0.43,-3.35 -1.3,-4.46c-0.87,-1.11 -2.04,-1.66 -3.52,-1.66c-1.48,0 -2.66,0.55 -3.52,1.66c-0.87,1.11 -1.3,2.59 -1.3,4.46c0,1.87 0.43,3.35 1.3,4.45c0.87,1.1 2.04,1.65 3.52,1.65c1.48,0 2.66,-0.55 3.52,-1.65c0.87,-1.1 1.3,-2.58 1.3,-4.45zM123.7,20.76c0.56,-0.15 1.28,-0.33 2.18,-0.52c0.89,-0.19 2.05,-0.29 3.48,-0.29c1.89,0 3.25,0.55 4.1,1.65c0.1,-0.08 0.28,-0.21 0.56,-0.39c0.28,-0.18 0.63,-0.37 1.05,-0.56c0.42,-0.19 0.92,-0.36 1.49,-0.49c0.57,-0.13 1.2,-0.2 1.89,-0.2c1.14,0 2.05,0.17 2.76,0.51c0.7,0.34 1.25,0.81 1.63,1.41c0.38,0.61 0.64,1.33 0.78,2.18c0.13,0.85 0.2,1.77 0.2,2.77v8.34h-1.88v-7.74c0,-0.98 -0.04,-1.83 -0.13,-2.55c-0.09,-0.72 -0.26,-1.32 -0.52,-1.79c-0.26,-0.47 -0.63,-0.83 -1.11,-1.07c-0.48,-0.24 -1.11,-0.36 -1.88,-0.36c-0.58,0 -1.1,0.05 -1.57,0.16c-0.47,0.11 -0.88,0.24 -1.23,0.39c-0.35,0.15 -0.63,0.31 -0.85,0.46c-0.22,0.15 -0.38,0.27 -0.48,0.35c0.17,0.5 0.3,1.06 0.39,1.69c0.09,0.63 0.13,1.28 0.13,1.98v8.49h-1.88v-7.74c0,-0.98 -0.04,-1.83 -0.13,-2.55c-0.09,-0.72 -0.26,-1.32 -0.53,-1.79c-0.27,-0.47 -0.65,-0.83 -1.14,-1.07c-0.49,-0.24 -1.14,-0.36 -1.95,-0.36c-0.9,0 -1.67,0.05 -2.3,0.14c-0.63,0.1 -1.02,0.18 -1.2,0.26v13.11h-1.88zM147.72,27.68c0,-1.31 0.19,-2.45 0.56,-3.42c0.38,-0.97 0.87,-1.79 1.47,-2.44c0.61,-0.65 1.3,-1.14 2.08,-1.46c0.78,-0.32 1.58,-0.48 2.41,-0.48c1.83,0 3.29,0.6 4.37,1.79c1.09,1.19 1.63,3.03 1.63,5.51c0,0.15 0,0.31 -0.01,0.46c-0.01,0.15 -0.02,0.3 -0.04,0.43h-10.48c0.06,1.83 0.51,3.23 1.36,4.21c0.85,0.98 2.19,1.47 4.04,1.47c1.02,0 1.83,-0.1 2.43,-0.29c0.6,-0.19 1.03,-0.36 1.3,-0.49l0.35,1.62c-0.27,0.15 -0.77,0.34 -1.52,0.55c-0.74,0.21 -1.61,0.32 -2.61,0.32c-1.31,0 -2.42,-0.19 -3.35,-0.58c-0.92,-0.38 -1.68,-0.92 -2.28,-1.62c-0.6,-0.69 -1.03,-1.52 -1.3,-2.47c-0.27,-0.95 -0.4,-2 -0.4,-3.13zM158.31,26.5c-0.04,-1.56 -0.4,-2.77 -1.1,-3.64c-0.69,-0.87 -1.67,-1.3 -2.94,-1.3c-0.67,0 -1.28,0.13 -1.8,0.4c-0.53,0.27 -0.99,0.63 -1.39,1.08c-0.39,0.45 -0.7,0.98 -0.92,1.57c-0.22,0.6 -0.35,1.22 -0.39,1.88z" />
	<g id="Group 2">
		<path id="Mask" class="shp1" d="M0.1,10l9.9,9.9l9.9,-9.9l-9.9,-9.9z" />
		<g id="Mask by Mask" clip-path="url(#cp1)">
			<path id="Shape" class="shp2" d="M10,13c-1.1,0 -2,0.9 -2,2c0,1.1 0.9,2 2,2c1.1,0 2,-0.9 2,-2c0,-1.1 -0.9,-2 -2,-2zM16,15c0,-3.31 -2.69,-6 -6,-6c-3.31,0 -6,2.69 -6,6c0,2.22 1.21,4.15 3,5.19l1,-1.74c-1.19,-0.7 -2,-1.97 -2,-3.45c0,-2.21 1.79,-4 4,-4c2.21,0 4,1.79 4,4c0,1.48 -0.81,2.75 -2,3.45l1,1.74c1.79,-1.04 3,-2.97 3,-5.19zM10,5c-5.52,0 -10,4.48 -10,10c0,3.7 2.01,6.92 4.99,8.65l1,-1.73c-2.38,-1.39 -3.99,-3.96 -3.99,-6.92c0,-4.42 3.58,-8 8,-8c4.42,0 8,3.58 8,8c0,2.96 -1.61,5.53 -4,6.92l1,1.73c2.99,-1.73 5,-4.95 5,-8.65c0,-5.52 -4.48,-10 -10,-10z" />
		</g>
	</g>
</svg>